<svg viewBox="0 0 32 32" xmlns="http://www.w3.org/2000/svg" stroke="transparent" fill="none">
    <g stroke="none" stroke-width="1" fill="none" fill-rule="evenodd">
        <g id="Undefined" fill-rule="nonzero">
            <path d="M15,1.32842712 C15.3838835,1.32842712 15.767767,1.47487373 16.0606602,1.76776695 L16.0606602,1.76776695 L28.232233,13.9393398 C28.5251262,14.232233 28.6715728,14.6161165 28.6715728,15 C28.6715728,15.3838835 28.5251262,15.767767 28.232233,16.0606602 L28.232233,16.0606602 L16.0606602,28.232233 C15.767767,28.5251262 15.3838835,28.6715728 15,28.6715728 C14.6161165,28.6715728 14.232233,28.5251262 13.9393398,28.232233 L13.9393398,28.232233 L1.76776696,16.0606602 C1.47487373,15.767767 1.32842712,15.3838835 1.32842712,15 C1.32842712,14.6161165 1.47487373,14.232233 1.76776696,13.9393398 L1.76776695,13.9393398 L13.9393398,1.76776696 C14.232233,1.47487373 14.6161165,1.32842712 15,1.32842712 Z" id="Path-2" stroke="#FFFFFF" fill="#4F2196"></path>
            <rect id="Rectangle" fill="#FFFFFF" transform="translate(15.000000, 15.000000) rotate(-90.000000) translate(-15.000000, -15.000000) " x="14" y="9" width="2" height="12"></rect>
        </g>
    </g>
</svg>